<?xml version="1.0" standalone="no"?>
<!DOCTYPE svg PUBLIC "-//W3C//DTD SVG 20010904//EN"
 "http://www.w3.org/TR/2001/REC-SVG-20010904/DTD/svg10.dtd">
<svg version="1.0" xmlns="http://www.w3.org/2000/svg"
 width="270.000000pt" height="187.000000pt" viewBox="0 0 270.000000 187.000000"
 preserveAspectRatio="xMidYMid meet">

<g transform="translate(0.000000,187.000000) scale(0.100000,-0.100000)"
fill="#000000" stroke="none">
<path d="M313 1855 c-80 -22 -131 -52 -190 -111 -60 -60 -98 -132 -114 -217
-6 -36 -9 -263 -7 -629 3 -555 4 -575 24 -624 47 -115 133 -202 241 -246 l58
-23 1025 0 1025 0 57 23 c109 44 196 131 240 240 l23 57 0 610 0 610 -23 57
c-44 109 -131 196 -240 240 l-57 23 -1005 2 c-843 2 -1013 0 -1057 -12z m603
-651 c90 -47 164 -87 164 -90 0 -2 -151 -4 -337 -4 -185 0 -333 3 -329 7 15
15 311 172 325 173 8 0 87 -39 177 -86z m1274 -171 l1 -88 37 43 c32 36 42 42
76 42 l40 0 -30 -32 c-57 -62 -57 -59 -14 -124 22 -32 40 -62 40 -66 0 -5 -15
-8 -34 -8 -30 0 -38 6 -63 45 -15 25 -32 43 -38 42 -5 -2 -11 -22 -13 -45 -3
-41 -4 -42 -38 -42 l-34 0 0 160 0 160 35 0 35 0 0 -87z m-657 34 c18 -36 18
-38 -1 -70 l-19 -33 23 -28 c27 -30 29 -42 14 -81 -14 -38 -65 -55 -165 -55
l-85 0 0 155 0 156 108 -3 107 -3 18 -38z m-443 13 c0 -20 -7 -20 -345 -20
-338 0 -345 0 -345 20 0 20 7 20 345 20 338 0 345 0 345 -20z m-540 -200 l0
-170 -50 0 -50 0 0 170 0 170 50 0 50 0 0 -170z m160 0 l0 -170 -45 0 -45 0 0
170 0 170 45 0 45 0 0 -170z m160 0 l0 -170 -40 0 -40 0 0 170 0 170 40 0 40
0 0 -170z m168 -2 l2 -168 -45 0 -45 0 0 171 0 170 43 -3 42 -3 3 -167z m713
147 c35 -19 49 -50 49 -110 0 -24 5 -47 10 -50 6 -3 10 -19 10 -36 0 -25 -4
-29 -29 -29 -16 0 -36 6 -43 14 -12 11 -17 11 -33 0 -28 -21 -88 -17 -113 6
-60 56 4 141 93 127 38 -6 44 3 19 27 -19 20 -41 20 -76 2 -25 -13 -29 -13
-38 4 -15 27 -13 30 23 45 42 19 91 19 128 0z m298 -4 c21 -21 35 -99 29 -171
-3 -44 -4 -45 -40 -48 l-37 -3 -3 83 c-3 79 -4 83 -27 86 -37 6 -51 -22 -51
-100 l0 -68 -35 0 -35 0 0 115 0 115 35 0 c19 0 35 -4 35 -9 0 -6 12 -3 28 5
38 19 78 18 101 -5z m-139 -296 c0 -8 -7 -15 -15 -15 -8 0 -15 -7 -15 -16 0
-8 4 -13 9 -9 5 3 12 1 16 -5 3 -6 -1 -13 -9 -16 -10 -4 -16 -19 -16 -40 0
-24 -5 -34 -15 -34 -10 0 -15 10 -15 34 0 19 -4 37 -9 41 -9 5 -1 26 22 63 11
17 47 15 47 -3z m-490 -5 c0 -5 -11 -10 -25 -10 -24 0 -25 -3 -25 -60 0 -47
-3 -60 -15 -60 -12 0 -15 13 -15 60 0 57 -1 60 -25 60 -14 0 -25 5 -25 10 0 6
28 10 65 10 37 0 65 -4 65 -10z m-330 -45 l0 -25 -340 0 -340 0 0 25 0 25 340
0 340 0 0 -25z m400 9 c0 -6 -7 -14 -15 -18 -9 -3 -15 -19 -15 -41 0 -24 -4
-35 -15 -35 -11 0 -15 13 -15 53 0 53 0 54 30 54 17 0 30 -6 30 -13z m94 0 c9
-8 16 -26 16 -39 0 -13 3 -30 6 -38 4 -12 -5 -14 -48 -13 -46 1 -53 4 -56 23
-4 24 30 48 55 39 9 -4 13 -1 10 6 -2 7 -16 12 -31 11 -27 -2 -36 11 -13 20
24 10 46 7 61 -9z m124 3 c18 -14 16 -97 -3 -97 -11 0 -15 11 -15 41 0 33 -3
40 -17 37 -13 -2 -19 -14 -21 -41 -2 -24 -8 -37 -18 -37 -10 0 -14 13 -14 48
0 27 2 51 5 54 9 9 70 6 83 -5z m110 -5 c3 -9 -3 -11 -22 -6 -36 9 -33 -11 4
-26 31 -13 36 -25 21 -48 -9 -16 -88 -13 -83 3 2 6 16 9 32 7 39 -4 39 14 0
22 -32 6 -40 32 -18 54 16 16 60 12 66 -6z m184 6 c9 -7 18 -22 20 -33 3 -17
-4 -21 -42 -25 -29 -3 -40 -8 -32 -13 7 -5 27 -5 45 -1 28 6 30 5 18 -10 -17
-20 -65 -21 -85 0 -22 21 -20 50 4 74 23 23 49 26 72 8z m103 0 c4 -3 -3 -11
-14 -18 -15 -8 -21 -20 -21 -45 0 -24 -5 -35 -15 -35 -11 0 -15 13 -15 54 0
53 0 54 29 52 16 -1 33 -4 36 -8z m-1015 -78 l0 -30 -340 0 -340 0 0 30 0 30
340 0 340 0 0 -30z"/>
<path d="M1370 1020 c0 -31 0 -31 48 -28 43 3 47 5 47 28 0 23 -4 25 -47 28
-48 3 -48 3 -48 -28z"/>
<path d="M1370 900 l0 -31 53 3 c48 3 52 5 52 28 0 23 -4 25 -52 28 l-53 3 0
-31z"/>
<path d="M1662 901 c-20 -12 -10 -45 13 -49 28 -4 60 21 52 42 -7 17 -43 21
-65 7z"/>
<path d="M1530 624 c0 -9 7 -14 17 -12 25 5 28 28 4 28 -12 0 -21 -6 -21 -16z"/>
<path d="M1950 665 c-11 -13 -9 -15 15 -15 16 0 25 5 23 12 -7 19 -24 20 -38
3z"/>
</g>
</svg>
