<?xml version="1.0" standalone="no"?>
<!DOCTYPE svg PUBLIC "-//W3C//DTD SVG 20010904//EN"
 "http://www.w3.org/TR/2001/REC-SVG-20010904/DTD/svg10.dtd">
<svg version="1.0" xmlns="http://www.w3.org/2000/svg"
 width="2362.000000pt" height="1476.000000pt" viewBox="0 0 2362.000000 1476.000000"
 preserveAspectRatio="xMidYMid meet">

<g transform="translate(0.000000,1476.000000) scale(0.100000,-0.100000)"
fill="#000000" stroke="none">
<path d="M4568 11670 c-290 -49 -505 -238 -629 -551 -56 -143 -114 -475 -107
-609 5 -93 39 -161 110 -225 145 -130 383 -99 488 65 39 60 46 87 65 230 20
146 32 202 60 266 30 69 80 123 140 150 l50 24 2835 -1 c3068 0 2870 4 2945
-53 41 -31 89 -110 110 -178 7 -27 23 -114 35 -195 32 -220 73 -294 198 -355
123 -61 264 -39 370 57 55 49 93 129 99 207 7 79 -38 383 -73 505 -100 345
-288 556 -576 645 l-73 23 -3000 1 c-1650 1 -3021 -2 -3047 -6z"/>
<path d="M3904 9471 c-101 -17 -184 -69 -229 -145 -31 -53 -11 89 -281 -2006
-212 -1653 -226 -1769 -215 -1822 27 -129 119 -204 264 -215 139 -11 243 22
322 102 58 57 68 97 100 380 74 659 328 2685 336 2685 12 0 193 -399 286 -629
152 -376 458 -1221 684 -1890 100 -296 122 -342 189 -405 137 -128 342 -151
512 -59 56 31 128 103 156 159 11 21 69 185 130 364 218 643 522 1485 657
1820 124 307 289 655 298 630 9 -27 265 -2091 327 -2648 17 -144 33 -275 36
-290 31 -126 147 -208 312 -219 156 -10 263 39 316 145 44 86 52 4 -204 1987
-231 1794 -240 1856 -267 1906 -60 111 -158 153 -348 152 -354 -2 -455 -112
-788 -858 -95 -212 -202 -466 -308 -733 -76 -190 -510 -1318 -525 -1365 -9
-26 -11 -23 -38 50 -81 219 -441 1151 -533 1378 -263 652 -476 1112 -600 1297
-76 113 -170 183 -288 214 -63 17 -234 25 -301 15z"/>
<path d="M8682 9461 c-90 -31 -172 -115 -204 -209 -17 -49 -24 -3579 -8 -3685
18 -119 79 -205 178 -254 l57 -28 1035 0 c964 0 1041 1 1118 18 269 60 467
168 657 361 222 226 330 471 342 777 11 273 -48 494 -190 707 -78 117 -232
270 -359 356 l-86 58 84 111 c142 187 199 333 211 537 15 266 -61 542 -207
754 -60 86 -208 234 -295 293 -134 90 -316 165 -485 199 -75 15 -186 17 -940
20 -813 4 -858 3 -908 -15z m1783 -624 c217 -62 379 -217 430 -408 32 -118 13
-268 -46 -380 -40 -74 -147 -178 -224 -217 -143 -72 -165 -75 -545 -81 l-345
-6 -53 -29 c-60 -33 -101 -76 -134 -139 -19 -35 -23 -58 -23 -137 0 -84 3
-101 27 -146 14 -27 45 -67 68 -88 81 -73 62 -70 590 -77 536 -6 532 -6 700
-86 169 -81 296 -235 331 -402 18 -87 7 -233 -24 -313 -55 -144 -160 -258
-302 -328 -143 -71 -125 -70 -1017 -70 l-798 0 0 1465 0 1466 653 -3 c581 -3
658 -6 712 -21z"/>
<path d="M13580 8738 c-59 -30 -90 -77 -90 -137 0 -109 255 -1297 390 -1816
118 -456 167 -591 235 -654 52 -48 104 -64 205 -65 129 0 197 39 250 143 63
126 167 487 346 1204 53 213 98 386 100 384 2 -2 33 -131 69 -288 122 -526
262 -1056 326 -1233 49 -135 101 -183 227 -206 109 -19 230 15 286 81 39 46
59 90 104 229 95 294 246 926 417 1745 94 448 96 461 86 506 -20 86 -104 136
-217 126 -69 -5 -101 -21 -136 -68 -12 -16 -60 -217 -143 -602 -131 -606 -282
-1277 -313 -1386 -10 -36 -21 -61 -24 -55 -13 20 -121 434 -187 714 -38 162
-113 495 -166 740 -61 280 -105 460 -119 485 -11 21 -41 53 -64 70 -39 26 -53
30 -126 33 -96 4 -142 -13 -194 -72 -35 -40 -47 -77 -91 -271 -164 -720 -425
-1735 -442 -1717 -21 21 -159 636 -318 1420 -76 374 -129 608 -142 633 -39 77
-173 105 -269 57z"/>
<path d="M17599 8745 c-65 -21 -102 -67 -175 -220 -160 -336 -462 -1180 -719
-2011 -80 -257 -87 -306 -56 -364 51 -98 215 -119 305 -40 41 36 62 85 115
260 22 74 62 207 88 295 l48 160 520 2 520 3 75 -232 c111 -344 153 -455 186
-489 72 -75 230 -58 297 33 30 40 33 112 8 191 -97 314 -445 1317 -602 1735
-210 557 -247 633 -329 669 -51 22 -222 27 -281 8z m185 -588 c98 -248 150
-389 242 -661 52 -153 94 -280 94 -282 0 -2 -175 -4 -389 -4 l-390 0 109 323
c102 304 268 747 280 747 3 0 27 -55 54 -123z"/>
<path d="M18916 8750 c-65 -20 -116 -95 -116 -170 0 -50 22 -107 151 -391 192
-425 369 -758 515 -971 l73 -107 3 -458 c3 -505 1 -490 68 -547 45 -38 103
-51 168 -38 67 14 105 41 131 95 20 42 21 58 21 499 0 442 1 455 20 473 110
100 471 787 675 1283 57 141 61 207 16 269 -36 49 -91 73 -169 73 -117 0 -123
-7 -288 -380 -123 -277 -316 -671 -389 -796 l-57 -97 -35 54 c-53 83 -319 626
-433 884 -115 262 -138 301 -185 321 -38 15 -123 17 -169 4z"/>
<path d="M3214 4526 c-96 -31 -189 -127 -213 -221 -25 -95 -53 -380 -46 -469
26 -364 204 -620 505 -728 l65 -23 4015 -3 c4483 -3 4084 -9 4238 68 191 97
310 246 377 475 39 131 44 282 16 496 -27 212 -40 249 -110 320 -67 67 -142
99 -231 99 -163 0 -311 -132 -327 -291 -2 -30 2 -105 11 -167 29 -204 17 -261
-67 -319 l-40 -28 -3816 -3 c-4237 -3 -3867 -9 -3930 63 -51 58 -56 94 -36
248 10 74 16 163 13 198 -7 115 -78 218 -183 268 -61 29 -179 38 -241 17z"/>
</g>
</svg>
