<?xml version="1.0" standalone="no"?>
<!DOCTYPE svg PUBLIC "-//W3C//DTD SVG 20010904//EN"
 "http://www.w3.org/TR/2001/REC-SVG-20010904/DTD/svg10.dtd">
<svg version="1.0" xmlns="http://www.w3.org/2000/svg"
 width="1280.000000pt" height="414.000000pt" viewBox="0 0 1280.000000 414.000000"
 preserveAspectRatio="xMidYMid meet">

<g transform="translate(0.000000,414.000000) scale(0.100000,-0.100000)"
fill="#000000" stroke="none">
<path d="M2515 4120 c-22 -11 -75 -49 -117 -84 -54 -45 -91 -67 -125 -75 -65
-17 -115 -71 -179 -196 -150 -290 -275 -720 -519 -1785 -47 -206 -115 -490
-151 -630 -65 -257 -150 -530 -164 -530 -15 0 -48 341 -105 1095 -19 259 -47
621 -61 805 -15 201 -27 433 -28 580 -2 195 -6 260 -20 320 -58 242 -200 331
-505 317 -178 -8 -317 -59 -422 -155 -112 -103 -126 -170 -110 -540 30 -682
133 -1490 291 -2282 72 -362 125 -589 155 -655 46 -104 141 -179 280 -222 49
-15 93 -18 235 -17 164 0 180 2 255 28 422 145 672 506 849 1224 52 208 255
1206 357 1752 92 495 144 749 180 893 32 128 30 150 -17 167 -33 13 -33 13
-79 -10z"/>
<path d="M12525 4064 c-58 -14 -146 -50 -190 -79 -36 -22 -67 -33 -108 -38
-66 -6 -135 -42 -166 -85 -21 -29 -54 -186 -90 -417 -16 -107 -101 -749 -101
-767 0 -3 -37 -11 -82 -17 -515 -74 -894 -359 -1103 -831 -76 -171 -124 -260
-211 -393 -192 -290 -397 -487 -619 -593 -363 -173 -676 -69 -759 253 -22 83
-21 116 2 109 58 -17 161 -28 257 -28 124 0 220 19 327 63 323 133 568 513
568 881 0 127 -17 205 -63 292 -152 287 -608 358 -987 155 -311 -167 -577
-507 -709 -904 -68 -206 -84 -303 -85 -515 -1 -199 9 -280 51 -415 70 -222
189 -370 368 -456 105 -51 192 -69 341 -69 356 0 715 146 1038 424 75 65 225
233 279 313 23 34 45 63 49 63 3 0 4 -26 1 -57 -7 -80 13 -283 37 -378 69
-271 223 -415 442 -415 101 0 152 12 263 65 183 86 323 223 451 445 44 77 49
82 51 55 26 -308 99 -506 206 -562 40 -20 143 -12 286 22 58 14 134 30 169 35
35 5 70 14 78 21 20 17 17 83 -12 244 -20 113 -26 185 -31 370 -10 406 30 821
217 2255 44 333 84 629 90 659 37 192 -18 290 -168 297 -37 1 -76 1 -87 -2z
m-2715 -1742 c30 -24 35 -84 15 -183 -56 -276 -248 -494 -515 -583 -70 -23
-200 -50 -207 -42 -7 7 51 174 88 254 130 283 328 504 495 556 66 20 98 19
124 -2z m2045 -209 c-3 -16 -17 -91 -31 -168 -67 -375 -218 -833 -345 -1049
-110 -185 -227 -281 -319 -261 -36 8 -83 60 -101 112 -34 96 -5 347 67 563
124 375 367 676 643 797 42 18 79 33 83 33 4 0 5 -12 3 -27z"/>
<path d="M7715 3890 c-98 -15 -158 -53 -200 -123 -47 -81 -115 -394 -133 -612
l-7 -90 -119 -7 c-215 -13 -330 -40 -345 -81 -21 -55 29 -175 99 -241 71 -66
149 -98 304 -121 l38 -6 -7 -77 c-18 -198 -81 -462 -171 -717 -218 -613 -577
-1179 -655 -1033 -22 41 -21 200 2 488 51 636 24 960 -92 1085 -110 119 -410
193 -625 154 -90 -16 -164 -61 -251 -153 -133 -139 -235 -305 -420 -681 -62
-126 -117 -237 -123 -245 -15 -20 -10 24 56 495 30 214 56 428 57 475 2 77 -1
90 -26 132 -55 94 -171 127 -262 73 -28 -16 -83 -31 -161 -45 -79 -14 -133
-29 -162 -46 -72 -42 -79 -65 -122 -419 -51 -416 -369 -1094 -650 -1389 -111
-116 -196 -167 -256 -152 -86 22 -91 253 -18 706 14 85 47 272 74 415 119 632
119 629 24 735 -79 87 -167 123 -341 140 -137 13 -171 2 -239 -73 -133 -148
-276 -617 -324 -1059 -15 -142 -13 -381 5 -481 35 -201 124 -379 255 -507 125
-124 251 -183 431 -203 160 -18 297 20 451 124 136 93 312 295 446 515 31 52
59 94 62 94 3 0 5 -129 5 -287 0 -159 3 -300 8 -315 10 -36 31 -46 135 -64
114 -20 143 -29 202 -69 66 -44 116 -52 173 -27 70 31 94 74 192 338 101 269
294 748 390 965 174 391 290 585 339 566 42 -16 46 -207 15 -684 -32 -487 -20
-743 40 -861 25 -48 136 -153 204 -192 117 -68 277 -89 398 -54 196 58 392
229 574 499 82 122 185 309 236 427 19 43 36 78 39 78 3 0 2 -46 -1 -102 -11
-168 -10 -596 2 -714 12 -128 33 -219 57 -254 10 -14 56 -44 102 -68 47 -23
118 -61 158 -83 96 -54 180 -64 226 -28 16 12 35 37 42 55 18 42 74 608 194
1953 28 311 51 566 53 567 3 4 397 73 457 80 72 9 126 28 167 60 65 50 37 120
-80 195 -103 67 -245 99 -435 99 l-84 0 3 273 c2 234 0 277 -14 310 -12 28
-15 54 -10 100 5 61 4 64 -26 95 -56 55 -233 91 -356 72z"/>
<path d="M3497 3609 c-115 -18 -286 -127 -354 -226 -34 -50 -38 -62 -38 -117
1 -164 170 -335 362 -366 115 -19 226 21 306 110 64 72 81 128 74 249 -15 255
-143 382 -350 350z"/>
</g>
</svg>
